<?xml version="1.0" encoding="UTF-8"?>
<svg
    width="28px"
    height="29px"
    viewBox="0 0 28 29"
    version="1.1"
    xmlns="http://www.w3.org/2000/svg"
>
  <g stroke="none" stroke-width="1" fill="none" fill-rule="evenodd">
    <g transform="translate(-0.500000, 0.000000)" fill-rule="nonzero">
      <path d="M27.54,12.47 C27.3817921,9.20595612 26.0000884,6.12122239 23.67,3.83 C21.2048048,1.41076237 17.8839266,0.0630033846 14.43,0.0798411727 L14.12,0.0798411727 C7.49573667,0.304584093 2.06344682,5.40323725 1.42,12 C0.862364015,12.7287298 0.563295753,13.6224162 0.569889692,14.54 L0.569889692,18.54 C0.574647505,20.8520723 2.41869023,22.740443 4.73,22.8 L4.86,22.8 L5.09,22.8 C6.01171035,23.545116 7.28000636,23.693111 8.34851004,23.1802293 C9.41701373,22.6673475 10.0948465,21.5852107 10.09,20.4 L10.09,12.71 C10.0873521,11.8931319 9.7603109,11.1107729 9.18082256,10.5350353 C8.60133421,9.95929766 7.81686809,9.63734353 7,9.64 L6.68,9.64 C7.73409858,7.32933504 9.66173908,5.53116293 12.04,4.64 C15.2333041,3.71075213 18.6787846,4.61826711 21,7 C21,7 21.08,7 21.11,7.07 C21.8435686,7.84009897 22.4178825,8.74744699 22.8,9.74 C22.5506366,9.6827779 22.2958313,9.65260359 22.04,9.65 C20.3467645,9.65548865 18.9754887,11.0267645 18.97,12.72 L18.97,20.38 C18.949648,21.2125916 19.2763214,22.0161745 19.8718288,22.5984063 C20.4673363,23.1806382 21.2780787,23.4891146 22.11,23.45 C20.5719338,25.2127773 18.3393283,26.2139785 16,26.19 L15.25,26.19 L15.25,28.6702225 L16,28.6702225 C19.2361748,28.691074 22.3002123,27.2144294 24.3,24.67 C24.8871857,23.9325875 25.3996998,23.138693 25.83,22.3 C26.4021113,21.9887355 26.8895625,21.5424774 27.25,21 C27.7778095,20.2771986 28.0615372,19.4049986 28.06,18.51 L28.06,14.51 C28.0827942,13.7945381 27.9025047,13.0872485 27.54,12.47 Z" fill="#253746"></path>
      <path d="M18.86,27.3 C18.86,27.3 18.86,27.25 18.86,27.22 C18.8446316,27.1487588 18.8245882,27.078607 18.8,27.01 L18.8,26.94 L18.72,26.77 L18.72,26.77 C18.4252993,26.2757067 17.8851549,25.9807343 17.31,26 L15.19,26 C14.3173901,26 13.6099925,26.7073901 13.6099925,27.58 C13.6082858,28.1349229 13.9014902,28.6489827 14.38,28.93 L14.38,28.93 C14.4301748,28.9625644 14.4838436,28.9893988 14.54,29.01 L14.6099925,29.01 C14.7044003,29.0442895 14.8013708,29.07104 14.9,29.09 C14.9930733,29.0998519 15.0869267,29.0998519 15.18,29.09 L17.3,29.09 C18.1726099,29.09 18.88,28.3826099 18.88,27.51 C18.8789039,27.4395809 18.8722162,27.3693601 18.86,27.3 Z" fill="#FF5500"></path>
      <path d="M25.9,13 C25.7963512,6.7545527 20.7063056,1.74459528 14.46,1.73997792 L14.46,1.73997792 C8.33379799,1.72808361 3.28355987,6.54035239 3,12.66 C2.48450856,13.144695 2.19456113,13.8224471 2.19992484,14.53 L2.19992484,18.53 C2.19732919,19.217726 2.46934566,19.8780556 2.95564505,20.364355 C3.44194443,20.8506543 4.102274,21.1226708 4.79,21.1200195 C4.69747835,20.8738214 4.65005458,20.6129907 4.65,20.35 L4.65,12.71 C4.65005458,12.4470093 4.69747835,12.1861786 4.79,11.94 C4.6602032,11.9297208 4.5297968,11.9297208 4.4,11.94 C5.1170531,6.87746515 9.40767836,3.08713019 14.52,3 C19.6676731,3.1063876 23.9626505,6.96336231 24.62,12.07 C24.4772267,12.0213969 24.3297556,11.9878807 24.18,11.97 C24.2611005,12.2082205 24.3016634,12.4583584 24.3,12.71 L24.3,20.37 C24.3007561,20.6248393 24.2602313,20.8781187 24.18,21.1200195 C25.4567533,20.9357208 26.4032691,19.8399796 26.4002154,18.55 L26.4002154,14.55 C26.4072437,13.9925688 26.2316156,13.4481217 25.9,13 Z" fill="#E6E7E8"></path>
    </g>
  </g>
</svg>
